<?xml version="1.0" encoding="utf-8"?>
<svg id="logo" viewBox="0 0 181.40597534179688 46.93887710571289" version="1.1"
     xmlns="http://www.w3.org/2000/svg" x="0px" y="0px" style="enable-background:new 0 0 1400 980;"
     width="181.40597534179688px" height="46.93887710571289px">
    <g transform="matrix(20.818639755249023, 0, 0, 20.818639755249023, -123.51792764663696, -116.52036952972412)">
        <g transform="matrix(0.0047181411646306515, 0, 0, 0.004760633288261514, 5.880585193634033, 5.587008952443456)">
            <g transform="matrix(1.0332235097885132, 0, 0, 1.0332235097885132, -3.653594970703125, -1.6972506046295166)">
                <g transform="matrix(3.047632932662964, 0, 0, 3.047632932662964, -13.03135681152338, -28.408355712890625)">
                    <rect id="ee-background" x="0" y="0" width="181.40597534179688" height="46.93887710571289"
                          style="fill: white; fill-opacity: 0; pointer-events: none;"/>
                    <g transform="matrix(0.004991837311536074, 0.6808468103408815, -0.6808468103408815, 0.004991837311536074, 144.50784502114806, 10.37913636563465)">
                        <path
                              d="M26.129,153.148c2.929,2.929,2.929,7.678,0,10.606l-6.585,6.586c-1.407,1.407-3.314,2.197-5.304,2.197&#10;&#9;c-0.013,0-0.026-0.002-0.039-0.002c-0.013,0-0.026,0.002-0.038,0.002c-2.382,0-4.501-1.114-5.875-2.846l-6.092-6.093&#10;&#9;c-2.929-2.929-2.928-7.678,0-10.606c1.251-1.251,2.835-1.962,4.466-2.145V22.57c-1.632-0.182-3.215-0.894-4.467-2.146&#10;&#9;c-2.929-2.929-2.928-7.678,0-10.606l6.585-6.585c1.473-1.473,3.407-2.203,5.338-2.194c0.014,0,0.028-0.002,0.043-0.002&#10;&#9;c2.381,0,4.499,1.113,5.873,2.844l6.093,6.093c2.929,2.929,2.929,7.678,0,10.606c-1.251,1.251-2.835,1.964-4.467,2.146v128.278&#10;&#9;C23.294,151.185,24.878,151.897,26.129,153.148z M202.111,186.834c0-1.989-0.79-3.897-2.197-5.304l-6.585-6.585&#10;&#9;c-2.93-2.928-7.677-2.929-10.607,0.001c-1.251,1.251-1.963,2.834-2.145,4.466H52.299c-0.182-1.632-0.894-3.215-2.146-4.467&#10;&#9;c-2.929-2.928-7.678-2.928-10.606,0l-6.095,6.095c-1.729,1.374-2.842,3.491-2.842,5.872c0,0.013,0.002,0.025,0.002,0.038&#10;&#9;c0,0.013-0.002,0.026-0.002,0.039c0,1.989,0.79,3.897,2.197,5.304l6.585,6.585c1.465,1.464,3.384,2.196,5.303,2.196&#10;&#9;s3.839-0.732,5.304-2.197c1.251-1.251,1.962-2.834,2.145-4.465h128.278c0.182,1.631,0.894,3.215,2.145,4.466&#10;&#9;c1.464,1.464,3.384,2.196,5.303,2.196s3.839-0.732,5.303-2.196l6.091-6.091c1.732-1.374,2.846-3.492,2.846-5.875&#10;&#9;c0-0.013-0.002-0.026-0.002-0.039C202.109,186.86,202.111,186.847,202.111,186.834z M194.611,64.285h-52.767V8.536&#10;&#9;c0-4.143-3.358-7.5-7.5-7.5H44.851c-4.142,0-7.5,3.357-7.5,7.5v147.732c0,4.143,3.358,7.5,7.5,7.5h149.76c4.142,0,7.5-3.357,7.5-7.5&#10;&#9;V71.785C202.111,67.643,198.753,64.285,194.611,64.285z"
                              />
                        <g>
                        </g>
                        <g>
                        </g>
                        <g>
                        </g>
                        <g>
                        </g>
                        <g>
                        </g>
                        <g>
                        </g>
                        <g>
                        </g>
                        <g>
                        </g>
                        <g>
                        </g>
                        <g>
                        </g>
                        <g>
                        </g>
                        <g>
                        </g>
                        <g>
                        </g>
                        <g>
                        </g>
                        <g>
                        </g><path d="M 116.53226470947266 68.83111572265625 L 116.53226470947266 68.83111572265625"  style="fill-opacity: 1; stroke: rgb(255, 255, 255); stroke-opacity: 1; stroke-width: 0; paint-order: stroke;"/></g><g transform="matrix(1.1694456338882449, 0, 0, 1.1694456338882449, 74.58913036415197, 54.469440406052925)"><path fill="red" d="M47.533,0H8.467C3.798,0,0,3.798,0,8.467v39.066C0,52.202,3.798,56,8.467,56h39.066C52.202,56,56,52.202,56,47.533V8.467  C56,3.798,52.202,0,47.533,0z M54,47.533C54,51.099,51.099,54,47.533,54H8.467C4.901,54,2,51.099,2,47.533V30.414l6.247-6.247  C9.038,24.691,9.983,25,11,25s1.962-0.309,2.753-0.833l10.08,10.08C23.309,35.038,23,35.983,23,37c0,2.757,2.243,5,5,5s5-2.243,5-5  c0-1.017-0.309-1.962-0.833-2.753L46,20.414V27c0,0.553,0.447,1,1,1s1-0.447,1-1V17H38c-0.553,0-1,0.447-1,1s0.447,1,1,1h6.586  L30.753,32.833C29.962,32.309,29.017,32,28,32s-1.962,0.309-2.753,0.833l-10.08-10.08C15.691,21.962,16,21.017,16,20  c0-2.757-2.243-5-5-5s-5,2.243-5,5c0,1.017,0.309,1.962,0.833,2.753L2,27.586V8.467C2,4.901,4.901,2,8.467,2h39.066  C51.099,2,54,4.901,54,8.467V47.533z M11,23c-1.654,0-3-1.346-3-3s1.346-3,3-3s3,1.346,3,3S12.654,23,11,23z M31,37  c0,1.654-1.346,3-3,3s-3-1.346-3-3s1.346-3,3-3S31,35.346,31,37z" style="fill: rgb(0,0,0); stroke: rgb(0, 0, 0); stroke-width: 0; fill-opacity: 1; stroke-opacity: 0.98; paint-order: stroke;" transform="matrix(0.004925689660012722, -0.7934542298316956, 0.7934542298316956, 0.004925689660012722, 5.601939427969455, 37.708683596652065)"/><g/><g/><g/><g/><g/><g/><g/><g/><g/><g/><g/><g/><g/><g/><g/><path d="M 75.01061248779297 113.37999725341797 L 68.1506118774414 113.37999725341797 C 67.7372817993164 113.37999725341797 67.42394256591797 113.48333740234375 67.21060943603516 113.69000244140625 C 67.00394439697266 113.89666748046875 66.9006118774414 114.19999694824219 66.9006118774414 114.5999984741211 L 66.9006118774414 123 L 63.85061264038086 123 L 63.85061264038086 114.5999984741211 C 63.85061264038086 114.07333374023438 63.91727828979492 113.60333251953125 64.05061340332031 113.19000244140625 C 64.18394470214844 112.77666473388672 64.36061096191406 112.413330078125 64.58061218261719 112.0999984741211 C 64.80728149414062 111.77999877929688 65.0639419555664 111.51000213623047 65.3506088256836 111.29000091552734 C 65.63727569580078 111.0633316040039 65.94061279296875 110.87999725341797 66.26061248779297 110.73999786376953 C 66.57394409179688 110.5999984741211 66.8939437866211 110.49666595458984 67.22061157226562 110.43000030517578 C 67.54061126708984 110.36333465576172 67.84394836425781 110.33000183105469 68.130615234375 110.33000183105469 L 75.01061248779297 110.33000183105469 L 75.01061248779297 113.37999725341797 ZM 90.72649383544922 118.72000122070312 C 90.72649383544922 119.24666595458984 90.65982818603516 119.71666717529297 90.52649688720703 120.12999725341797 C 90.39315795898438 120.55000305175781 90.21649169921875 120.91999816894531 89.99649047851562 121.23999786376953 C 89.78315734863281 121.55332946777344 89.52983093261719 121.81999969482422 89.23649597167969 122.04000091552734 C 88.9498291015625 122.26667022705078 88.64649200439453 122.44999694824219 88.32649230957031 122.58999633789062 C 88.0131607055664 122.7300033569336 87.69316101074219 122.83333587646484 87.36649322509766 122.9000015258789 C 87.04649353027344 122.96666717529297 86.73983001708984 123 86.44649505615234 123 L 80.95649719238281 123 C 80.52983093261719 123 80.06649780273438 122.92666625976562 79.56649780273438 122.77999877929688 C 79.06649780273438 122.62666320800781 78.60649108886719 122.37999725341797 78.18649291992188 122.04000091552734 C 77.75982666015625 121.7066650390625 77.40316009521484 121.26667022705078 77.11649322509766 120.72000122070312 C 76.82982635498047 120.18000030517578 76.68649291992188 119.51333618164062 76.68649291992188 118.72000122070312 L 76.68649291992188 114.5999984741211 C 76.68649291992188 113.81999969482422 76.82982635498047 113.15666961669922 77.11649322509766 112.61000061035156 C 77.40316009521484 112.06999969482422 77.75982666015625 111.62999725341797 78.18649291992188 111.29000091552734 C 78.60649108886719 110.94999694824219 79.06649780273438 110.70333099365234 79.56649780273438 110.55000305175781 C 80.06649780273438 110.40333557128906 80.52983093261719 110.33000183105469 80.95649719238281 110.33000183105469 L 86.44649505615234 110.33000183105469 C 87.23316192626953 110.33000183105469 87.89982604980469 110.47000122070312 88.44649505615234 110.75 C 88.9931640625 111.03666687011719 89.43315887451172 111.38999938964844 89.76649475097656 111.80999755859375 C 90.0998306274414 112.23666381835938 90.3431625366211 112.69999694824219 90.49649047851562 113.19999694824219 C 90.64982604980469 113.69999694824219 90.72649383544922 114.16666412353516 90.72649383544922 114.5999984741211 L 90.72649383544922 118.72000122070312 M 87.67649841308594 114.62000274658203 C 87.67649841308594 114.19999694824219 87.57315826416016 113.88666534423828 87.36649322509766 113.68000030517578 C 87.15316009521484 113.47999572753906 86.84649658203125 113.37999725341797 86.44649505615234 113.37999725341797 L 80.97649383544922 113.37999725341797 C 80.56982421875 113.37999725341797 80.2631607055664 113.48333740234375 80.0564956665039 113.69000244140625 C 79.8431625366211 113.89666748046875 79.73649597167969 114.19999694824219 79.73649597167969 114.5999984741211 L 79.73649597167969 118.72000122070312 C 79.73649597167969 119.12000274658203 79.8431625366211 119.42666625976562 80.0564956665039 119.63999938964844 C 80.2631607055664 119.84666442871094 80.56982421875 119.94999694824219 80.97649383544922 119.94999694824219 L 86.44649505615234 119.94999694824219 C 86.85982513427734 119.94999694824219 87.16983032226562 119.84666442871094 87.37649536132812 119.63999938964844 C 87.57649230957031 119.42666625976562 87.67649841308594 119.12000274658203 87.67649841308594 118.72000122070312 L 87.67649841308594 114.62000274658203 ZM 96.40574645996094 107.72999572753906 L 93.36575317382812 107.72999572753906 L 93.36575317382812 104.97999572753906 L 96.40574645996094 104.97999572753906 L 96.40574645996094 107.72999572753906 M 96.40574645996094 124.22000122070312 C 96.40574645996094 124.73999786376953 96.33908081054688 125.20999908447266 96.20574951171875 125.62999725341797 C 96.07908630371094 126.05000305175781 95.90574645996094 126.41666412353516 95.68575286865234 126.7300033569336 C 95.46575164794922 127.05000305175781 95.21241760253906 127.31999969482422 94.92575073242188 127.54000091552734 C 94.63241577148438 127.76667022705078 94.32908630371094 127.94999694824219 94.0157470703125 128.08999633789062 C 93.69574737548828 128.22999572753906 93.37574768066406 128.3333282470703 93.05574798583984 128.39999389648438 C 92.73574829101562 128.46665954589844 92.43241882324219 128.5 92.145751953125 128.5 L 86.645751953125 128.5 L 86.645751953125 125.44999694824219 L 92.145751953125 125.44999694824219 C 92.55241394042969 125.44999694824219 92.85575103759766 125.34333038330078 93.05574798583984 125.12999725341797 C 93.26241302490234 124.92333221435547 93.36575317382812 124.62000274658203 93.36575317382812 124.22000122070312 L 93.36575317382812 110.33000183105469 L 96.40574645996094 110.33000183105469 L 96.40574645996094 124.22000122070312 ZM 112.94747161865234 114.52999877929688 C 112.94747161865234 114.94999694824219 112.87413787841797 115.40333557128906 112.72747802734375 115.88999938964844 C 112.57414245605469 116.37666320800781 112.33413696289062 116.83000183105469 112.00747680664062 117.25 C 111.67414093017578 117.66999816894531 111.23747253417969 118.0199966430664 110.69747161865234 118.30000305175781 C 110.16413879394531 118.58000183105469 109.51414489746094 118.72000122070312 108.74747467041016 118.72000122070312 L 103.25747680664062 118.72000122070312 L 103.25747680664062 115.83000183105469 L 108.74747467041016 115.83000183105469 C 109.16080474853516 115.83000183105469 109.48080444335938 115.70333099365234 109.70747375488281 115.44999694824219 C 109.93414306640625 115.19667053222656 110.04747009277344 114.87999725341797 110.04747009277344 114.5 C 110.04747009277344 114.1066665649414 109.92080688476562 113.79666900634766 109.66747283935547 113.56999969482422 C 109.41413879394531 113.34333038330078 109.10747528076172 113.22999572753906 108.74747467041016 113.22999572753906 L 103.25747680664062 113.22999572753906 C 102.8441390991211 113.22999572753906 102.52413940429688 113.3566665649414 102.29747009277344 113.61000061035156 C 102.07080841064453 113.86333465576172 101.95747375488281 114.17666625976562 101.95747375488281 114.55000305175781 L 101.95747375488281 118.80000305175781 C 101.95747375488281 119.2066650390625 102.08413696289062 119.52333068847656 102.33747100830078 119.75 C 102.59080505371094 119.97666931152344 102.90414428710938 120.08999633789062 103.27747344970703 120.08999633789062 L 108.74747467041016 120.08999633789062 L 108.74747467041016 123 L 103.25747680664062 123 C 102.830810546875 123 102.37413787841797 122.92666625976562 101.8874740600586 122.77999877929688 C 101.40081024169922 122.62666320800781 100.94747161865234 122.38666534423828 100.52747344970703 122.05999755859375 C 100.11414337158203 121.72666931152344 99.7641372680664 121.2933349609375 99.47747039794922 120.76000213623047 C 99.19747161865234 120.22000122070312 99.0574722290039 119.56666564941406 99.0574722290039 118.80000305175781 L 99.0574722290039 114.52999877929688 C 99.0574722290039 114.10333251953125 99.13080596923828 113.64666748046875 99.27747344970703 113.16000366210938 C 99.4308090209961 112.67333221435547 99.67414093017578 112.22000122070312 100.00747680664062 111.80000305175781 C 100.33413696289062 111.38666534423828 100.76747131347656 111.03666687011719 101.3074722290039 110.75 C 101.84080505371094 110.47000122070312 102.49080657958984 110.33000183105469 103.25747680664062 110.33000183105469 L 108.74747467041016 110.33000183105469 C 109.17414093017578 110.33000183105469 109.63080596923828 110.40333557128906 110.11747741699219 110.55000305175781 C 110.60414123535156 110.70333099365234 111.0574722290039 110.94667053222656 111.47747802734375 111.27999877929688 C 111.89080810546875 111.6066665649414 112.24080657958984 112.04000091552734 112.52747344970703 112.58000183105469 C 112.8074722290039 113.11333465576172 112.94747161865234 113.76333618164062 112.94747161865234 114.52999877929688 ZM 127.26146697998047 123 L 119.00147247314453 123 C 118.5748062133789 123 118.1114730834961 122.92666625976562 117.6114730834961 122.77999877929688 C 117.1114730834961 122.62666320800781 116.6514663696289 122.37999725341797 116.2314682006836 122.04000091552734 C 115.80480194091797 121.7066650390625 115.44813537597656 121.26667022705078 115.16146850585938 120.72000122070312 C 114.87480163574219 120.18000030517578 114.7314682006836 119.51333618164062 114.7314682006836 118.72000122070312 L 114.7314682006836 114.5999984741211 C 114.7314682006836 114.3066635131836 114.76480102539062 114 114.83146667480469 113.68000030517578 C 114.89813995361328 113.36000061035156 115.00147247314453 113.0433349609375 115.14147186279297 112.72999572753906 C 115.2814712524414 112.41000366210938 115.46480560302734 112.1066665649414 115.69146728515625 111.81999969482422 C 115.91146850585938 111.53333282470703 116.18147277832031 111.27999877929688 116.50147247314453 111.05999755859375 C 116.81480407714844 110.83999633789062 117.17813873291016 110.663330078125 117.59146881103516 110.52999877929688 C 118.00480651855469 110.39666748046875 118.47480010986328 110.33000183105469 119.00147247314453 110.33000183105469 L 127.26146697998047 110.33000183105469 L 127.26146697998047 113.37999725341797 L 119.00147247314453 113.37999725341797 C 118.60147094726562 113.37999725341797 118.29813385009766 113.47999572753906 118.09146881103516 113.68000030517578 C 117.88480377197266 113.88666534423828 117.7814712524414 114.19999694824219 117.7814712524414 114.62000274658203 L 117.7814712524414 118.72000122070312 C 117.7814712524414 119.12000274658203 117.88813781738281 119.42666625976562 118.10147094726562 119.63999938964844 C 118.30813598632812 119.84666442871094 118.61480712890625 119.94999694824219 119.02146911621094 119.94999694824219 L 127.26146697998047 119.94999694824219 L 127.26146697998047 123 ZM 141.2959442138672 113.37999725341797 L 135.9759521484375 113.37999725341797 L 135.9759521484375 123 L 132.8959503173828 123 L 132.8959503173828 113.37999725341797 L 128.93594360351562 113.37999725341797 L 128.93594360351562 110.33000183105469 L 132.8959503173828 110.33000183105469 L 132.8959503173828 106.19999694824219 L 135.9759521484375 106.19999694824219 L 135.9759521484375 110.33000183105469 L 141.2959442138672 110.33000183105469 L 141.2959442138672 113.37999725341797 ZM 166.1739501953125 109.23999786376953 L 159.45394897460938 109.23999786376953 L 159.45394897460938 123 L 156.4139404296875 123 L 156.4139404296875 109.23999786376953 L 149.68394470214844 109.23999786376953 L 149.68394470214844 106.19999694824219 L 166.1739501953125 106.19999694824219 L 166.1739501953125 109.23999786376953 ZM 177.74534606933594 113.37999725341797 L 170.88534545898438 113.37999725341797 C 170.47201538085938 113.37999725341797 170.15867614746094 113.48333740234375 169.94534301757812 113.69000244140625 C 169.73867797851562 113.89666748046875 169.63534545898438 114.19999694824219 169.63534545898438 114.5999984741211 L 169.63534545898438 123 L 166.58534240722656 123 L 166.58534240722656 114.5999984741211 C 166.58534240722656 114.07333374023438 166.65200805664062 113.60333251953125 166.78533935546875 113.19000244140625 C 166.91867065429688 112.77666473388672 167.0953369140625 112.413330078125 167.31533813476562 112.0999984741211 C 167.54200744628906 111.77999877929688 167.79867553710938 111.51000213623047 168.08534240722656 111.29000091552734 C 168.37200927734375 111.0633316040039 168.6753387451172 110.87999725341797 168.99534606933594 110.73999786376953 C 169.3086700439453 110.5999984741211 169.62867736816406 110.49666595458984 169.95533752441406 110.43000030517578 C 170.2753448486328 110.36333465576172 170.57867431640625 110.33000183105469 170.86534118652344 110.33000183105469 L 177.74534606933594 110.33000183105469 L 177.74534606933594 113.37999725341797 ZM 191.83079528808594 118.80000305175781 C 191.83079528808594 119.22666931152344 191.75746154785156 119.68333435058594 191.6107940673828 120.16999816894531 C 191.4574737548828 120.65666961669922 191.21414184570312 121.11000061035156 190.88079833984375 121.52999877929688 C 190.55413818359375 121.94999694824219 190.1208038330078 122.30000305175781 189.58079528808594 122.58000183105469 C 189.04747009277344 122.86000061035156 188.3974609375 123 187.63079833984375 123 L 182.14080810546875 123 C 181.71414184570312 123 181.25746154785156 122.92666625976562 180.7707977294922 122.77999877929688 C 180.2841339111328 122.62666320800781 179.83079528808594 122.38666534423828 179.41079711914062 122.05999755859375 C 178.9907989501953 121.72666931152344 178.64080810546875 121.2933349609375 178.3607940673828 120.76000213623047 C 178.08079528808594 120.22000122070312 177.9407958984375 119.56666564941406 177.9407958984375 118.80000305175781 C 177.9407958984375 118.37999725341797 178.01412963867188 117.92333221435547 178.16079711914062 117.43000030517578 C 178.3141326904297 116.9433364868164 178.55413818359375 116.48999786376953 178.88079833984375 116.06999969482422 C 179.21412658691406 115.6500015258789 179.6508026123047 115.30000305175781 180.1907958984375 115.0199966430664 C 180.72413635253906 114.73999786376953 181.37413024902344 114.5999984741211 182.14080810546875 114.5999984741211 L 187.63079833984375 114.5999984741211 L 187.63079833984375 117.5 L 182.14080810546875 117.5 C 181.7274627685547 117.5 181.407470703125 117.62666320800781 181.18080139160156 117.87999725341797 C 180.95413208007812 118.13999938964844 180.84080505371094 118.4566650390625 180.84080505371094 118.83000183105469 C 180.84080505371094 119.2300033569336 180.97079467773438 119.54000091552734 181.23080444335938 119.76000213623047 C 181.4907989501953 119.9800033569336 181.80079650878906 120.08999633789062 182.16079711914062 120.08999633789062 L 187.63079833984375 120.08999633789062 C 188.04412841796875 120.08999633789062 188.3641357421875 119.96666717529297 188.59080505371094 119.72000122070312 C 188.81747436523438 119.46666717529297 188.93080139160156 119.15333557128906 188.93080139160156 118.77999877929688 L 188.93080139160156 114.52999877929688 C 188.93080139160156 114.12999725341797 188.80746459960938 113.8133316040039 188.56080627441406 113.58000183105469 C 188.32080078125 113.34666442871094 188.01080322265625 113.22999572753906 187.63079833984375 113.22999572753906 L 180.9407958984375 113.22999572753906 L 180.9407958984375 110.33000183105469 L 187.63079833984375 110.33000183105469 C 188.05746459960938 110.33000183105469 188.51412963867188 110.40333557128906 189.00079345703125 110.55000305175781 C 189.4874725341797 110.70333099365234 189.9407958984375 110.94667053222656 190.3607940673828 111.27999877929688 C 190.77413940429688 111.6066665649414 191.12413024902344 112.04000091552734 191.41079711914062 112.58000183105469 C 191.6907958984375 113.11333465576172 191.83079528808594 113.76333618164062 191.83079528808594 114.52999877929688 L 191.83079528808594 118.80000305175781 ZM 206.69480895996094 123 L 198.434814453125 123 C 198.00814819335938 123 197.54481506347656 122.92666625976562 197.04481506347656 122.77999877929688 C 196.54481506347656 122.62666320800781 196.08480834960938 122.37999725341797 195.66481018066406 122.04000091552734 C 195.23814392089844 121.7066650390625 194.88148498535156 121.26667022705078 194.59481811523438 120.72000122070312 C 194.3081512451172 120.18000030517578 194.16481018066406 119.51333618164062 194.16481018066406 118.72000122070312 L 194.16481018066406 114.5999984741211 C 194.16481018066406 114.3066635131836 194.19815063476562 114 194.2648162841797 113.68000030517578 C 194.33148193359375 113.36000061035156 194.434814453125 113.0433349609375 194.57481384277344 112.72999572753906 C 194.71481323242188 112.41000366210938 194.8981475830078 112.1066665649414 195.12481689453125 111.81999969482422 C 195.34481811523438 111.53333282470703 195.61480712890625 111.27999877929688 195.934814453125 111.05999755859375 C 196.24813842773438 110.83999633789062 196.61148071289062 110.663330078125 197.02481079101562 110.52999877929688 C 197.43814086914062 110.39666748046875 197.90814208984375 110.33000183105469 198.434814453125 110.33000183105469 L 206.69480895996094 110.33000183105469 L 206.69480895996094 113.37999725341797 L 198.434814453125 113.37999725341797 C 198.03480529785156 113.37999725341797 197.73147583007812 113.47999572753906 197.52481079101562 113.68000030517578 C 197.31814575195312 113.88666534423828 197.21481323242188 114.19999694824219 197.21481323242188 114.62000274658203 L 197.21481323242188 118.72000122070312 C 197.21481323242188 119.12000274658203 197.32147216796875 119.42666625976562 197.53480529785156 119.63999938964844 C 197.74148559570312 119.84666442871094 198.0481414794922 119.94999694824219 198.45481872558594 119.94999694824219 L 206.69480895996094 119.94999694824219 L 206.69480895996094 123 ZM 224.0790557861328 123 L 219.68905639648438 123 L 213.54905700683594 117.06999969482422 C 213.202392578125 116.75666809082031 213.04238891601562 116.36666870117188 213.06906127929688 115.9000015258789 C 213.0823974609375 115.68000030517578 213.13905334472656 115.47333526611328 213.2390594482422 115.27999877929688 C 213.3323974609375 115.09333038330078 213.46572875976562 114.93333435058594 213.63905334472656 114.80000305175781 L 219.2090606689453 110.30999755859375 L 224.0790557861328 110.30999755859375 L 216.9090576171875 116.08999633789062 L 224.0790557861328 123 M 212.2890625 123 L 209.24905395507812 123 L 209.24905395507812 104.97999572753906 L 212.2890625 104.97999572753906 L 212.2890625 123 ZM 239.00405883789062 114.52999877929688 C 239.00405883789062 114.94999694824219 238.93072509765625 115.40333557128906 238.7840576171875 115.88999938964844 C 238.63072204589844 116.37666320800781 238.39073181152344 116.83000183105469 238.06405639648438 117.25 C 237.73072814941406 117.66999816894531 237.2940673828125 118.0199966430664 236.75405883789062 118.30000305175781 C 236.22073364257812 118.58000183105469 235.5707244873047 118.72000122070312 234.80406188964844 118.72000122070312 L 229.31405639648438 118.72000122070312 L 229.31405639648438 115.83000183105469 L 234.80406188964844 115.83000183105469 C 235.21739196777344 115.83000183105469 235.5373992919922 115.70333099365234 235.76406860351562 115.44999694824219 C 235.99072265625 115.19667053222656 236.10406494140625 114.87999725341797 236.10406494140625 114.5 C 236.10406494140625 114.1066665649414 235.97740173339844 113.79666900634766 235.72406005859375 113.56999969482422 C 235.47073364257812 113.34333038330078 235.1640625 113.22999572753906 234.80406188964844 113.22999572753906 L 229.31405639648438 113.22999572753906 C 228.90072631835938 113.22999572753906 228.5807342529297 113.3566665649414 228.35406494140625 113.61000061035156 C 228.1273956298828 113.86333465576172 228.01406860351562 114.17666625976562 228.01406860351562 114.55000305175781 L 228.01406860351562 118.80000305175781 C 228.01406860351562 119.2066650390625 228.14073181152344 119.52333068847656 228.39405822753906 119.75 C 228.64739990234375 119.97666931152344 228.96072387695312 120.08999633789062 229.3340606689453 120.08999633789062 L 234.80406188964844 120.08999633789062 L 234.80406188964844 123 L 229.31405639648438 123 C 228.88739013671875 123 228.43072509765625 122.92666625976562 227.94406127929688 122.77999877929688 C 227.4573974609375 122.62666320800781 227.00405883789062 122.38666534423828 226.5840606689453 122.05999755859375 C 226.1707305908203 121.72666931152344 225.8207244873047 121.2933349609375 225.5340576171875 120.76000213623047 C 225.25405883789062 120.22000122070312 225.1140594482422 119.56666564941406 225.1140594482422 118.80000305175781 L 225.1140594482422 114.52999877929688 C 225.1140594482422 114.10333251953125 225.18739318847656 113.64666748046875 225.3340606689453 113.16000366210938 C 225.48739624023438 112.67333221435547 225.73072814941406 112.22000122070312 226.06405639648438 111.80000305175781 C 226.39073181152344 111.38666534423828 226.82406616210938 111.03666687011719 227.3640594482422 110.75 C 227.89739990234375 110.47000122070312 228.54739379882812 110.33000183105469 229.31405639648438 110.33000183105469 L 234.80406188964844 110.33000183105469 C 235.23072814941406 110.33000183105469 235.68739318847656 110.40333557128906 236.17405700683594 110.55000305175781 C 236.6607208251953 110.70333099365234 237.1140594482422 110.94667053222656 237.5340576171875 111.27999877929688 C 237.9473876953125 111.6066665649414 238.29739379882812 112.04000091552734 238.5840606689453 112.58000183105469 C 238.8640594482422 113.11333465576172 239.00405883789062 113.76333618164062 239.00405883789062 114.52999877929688 ZM 252.1380615234375 113.37999725341797 L 245.27806091308594 113.37999725341797 C 244.86473083496094 113.37999725341797 244.5513916015625 113.48333740234375 244.3380584716797 113.69000244140625 C 244.1313934326172 113.89666748046875 244.02806091308594 114.19999694824219 244.02806091308594 114.5999984741211 L 244.02806091308594 123 L 240.97805786132812 123 L 240.97805786132812 114.5999984741211 C 240.97805786132812 114.07333374023438 241.0447235107422 113.60333251953125 241.1780548095703 113.19000244140625 C 241.31138610839844 112.77666473388672 241.48805236816406 112.413330078125 241.7080535888672 112.0999984741211 C 241.93472290039062 111.77999877929688 242.19139099121094 111.51000213623047 242.47805786132812 111.29000091552734 C 242.7647247314453 111.0633316040039 243.06805419921875 110.87999725341797 243.3880615234375 110.73999786376953 C 243.70138549804688 110.5999984741211 244.02139282226562 110.49666595458984 244.34805297851562 110.43000030517578 C 244.66806030273438 110.36333465576172 244.9713897705078 110.33000183105469 245.258056640625 110.33000183105469 L 252.1380615234375 110.33000183105469 L 252.1380615234375 113.37999725341797 Z" transform="matrix(2.1457858085632324, 0, 0, 2.1457858085632324, -107.17932527319795, -185.31205127505436)" style="fill: rgb(250, 250, 250); white-space: pre; color: rgb(51, 51, 51);"/><path d="M -250.7698516845703 196.9342041015625" style="fill: rgb(250, 250, 250); fill-opacity: 1; stroke: rgb(0, 0, 0); stroke-opacity: 1; stroke-width: 0; paint-order: fill;" transform="matrix(0.6935940980911255, 0, 0, 0.6935940980911255, 175.94634695223044, -53.42425460920009)"/><path d="M 152.97789001464844 -32.95710372924805" style="fill: rgb(250, 250, 250); fill-opacity: 1; stroke: rgb(0, 0, 0); stroke-opacity: 1; stroke-width: 0; paint-order: fill;"/><path d="M 140.69155883789062 1.7614030838012695" style="fill: rgb(0, 0, 0); fill-opacity: 1; stroke: rgb(0, 0, 0); stroke-opacity: 1; stroke-width: 0; paint-order: fill;" transform="matrix(1, 0, 0, 1, 4.243602583247309, -0.5304503229059208)"/></g></g></g></g></g></svg>
